<mxfile host="app.diagrams.net" modified="2022-03-31T03:17:32.496Z" agent="5.0 (Windows NT 10.0; Win64; x64) AppleWebKit/537.36 (KHTML, like Gecko) Chrome/99.0.4844.84 Safari/537.36" etag="Bu8_TixdMGInSRic_bBR" version="17.2.4" type="github">
  <diagram id="DCdBNZqIKcgh1ZAFiZLw" name="Page-1">
    <mxGraphModel dx="1002" dy="674" grid="0" gridSize="10" guides="1" tooltips="1" connect="1" arrows="1" fold="1" page="1" pageScale="1" pageWidth="827" pageHeight="1169" math="0" shadow="0">
      <root>
        <mxCell id="0" />
        <mxCell id="1" parent="0" />
        <mxCell id="jA6ZaiqIhAtj9mefgcWs-15" value="" style="edgeStyle=orthogonalEdgeStyle;rounded=0;orthogonalLoop=1;jettySize=auto;html=1;" edge="1" parent="1" source="jA6ZaiqIhAtj9mefgcWs-1" target="jA6ZaiqIhAtj9mefgcWs-14">
          <mxGeometry relative="1" as="geometry" />
        </mxCell>
        <mxCell id="jA6ZaiqIhAtj9mefgcWs-1" value="Tar List" style="rounded=1;whiteSpace=wrap;html=1;fillColor=#d5e8d4;strokeColor=#82b366;" vertex="1" parent="1">
          <mxGeometry x="60" y="165" width="120" height="60" as="geometry" />
        </mxCell>
        <mxCell id="jA6ZaiqIhAtj9mefgcWs-17" value="" style="edgeStyle=orthogonalEdgeStyle;rounded=0;orthogonalLoop=1;jettySize=auto;html=1;" edge="1" parent="1" source="jA6ZaiqIhAtj9mefgcWs-14" target="jA6ZaiqIhAtj9mefgcWs-16">
          <mxGeometry relative="1" as="geometry" />
        </mxCell>
        <mxCell id="jA6ZaiqIhAtj9mefgcWs-14" value="Global Shuffle" style="whiteSpace=wrap;html=1;fillColor=#d5e8d4;strokeColor=#82b366;rounded=1;" vertex="1" parent="1">
          <mxGeometry x="260" y="165" width="120" height="60" as="geometry" />
        </mxCell>
        <mxCell id="jA6ZaiqIhAtj9mefgcWs-19" value="" style="edgeStyle=orthogonalEdgeStyle;rounded=0;orthogonalLoop=1;jettySize=auto;html=1;" edge="1" parent="1" source="jA6ZaiqIhAtj9mefgcWs-16" target="jA6ZaiqIhAtj9mefgcWs-18">
          <mxGeometry relative="1" as="geometry" />
        </mxCell>
        <mxCell id="jA6ZaiqIhAtj9mefgcWs-16" value="UnTar" style="whiteSpace=wrap;html=1;fillColor=#d5e8d4;strokeColor=#82b366;rounded=1;" vertex="1" parent="1">
          <mxGeometry x="460" y="165" width="120" height="60" as="geometry" />
        </mxCell>
        <mxCell id="jA6ZaiqIhAtj9mefgcWs-33" value="" style="edgeStyle=orthogonalEdgeStyle;rounded=0;orthogonalLoop=1;jettySize=auto;html=1;" edge="1" parent="1" source="jA6ZaiqIhAtj9mefgcWs-18" target="jA6ZaiqIhAtj9mefgcWs-32">
          <mxGeometry relative="1" as="geometry" />
        </mxCell>
        <mxCell id="jA6ZaiqIhAtj9mefgcWs-18" value="Local Shuffle" style="whiteSpace=wrap;html=1;fillColor=#d5e8d4;strokeColor=#82b366;rounded=1;" vertex="1" parent="1">
          <mxGeometry x="660" y="165" width="120" height="60" as="geometry" />
        </mxCell>
        <mxCell id="jA6ZaiqIhAtj9mefgcWs-42" value="" style="edgeStyle=orthogonalEdgeStyle;rounded=0;orthogonalLoop=1;jettySize=auto;html=1;" edge="1" parent="1" source="jA6ZaiqIhAtj9mefgcWs-26" target="jA6ZaiqIhAtj9mefgcWs-41">
          <mxGeometry relative="1" as="geometry" />
        </mxCell>
        <mxCell id="jA6ZaiqIhAtj9mefgcWs-26" value="Fbank" style="whiteSpace=wrap;html=1;fillColor=#d5e8d4;strokeColor=#82b366;rounded=1;" vertex="1" parent="1">
          <mxGeometry x="60" y="457" width="120" height="60" as="geometry" />
        </mxCell>
        <mxCell id="jA6ZaiqIhAtj9mefgcWs-35" value="" style="edgeStyle=orthogonalEdgeStyle;rounded=0;orthogonalLoop=1;jettySize=auto;html=1;" edge="1" parent="1" source="jA6ZaiqIhAtj9mefgcWs-32" target="jA6ZaiqIhAtj9mefgcWs-34">
          <mxGeometry relative="1" as="geometry" />
        </mxCell>
        <mxCell id="jA6ZaiqIhAtj9mefgcWs-32" value="Spk2Id" style="whiteSpace=wrap;html=1;fillColor=#d5e8d4;strokeColor=#82b366;rounded=1;" vertex="1" parent="1">
          <mxGeometry x="660" y="305" width="120" height="60" as="geometry" />
        </mxCell>
        <mxCell id="jA6ZaiqIhAtj9mefgcWs-37" value="" style="edgeStyle=orthogonalEdgeStyle;rounded=0;orthogonalLoop=1;jettySize=auto;html=1;" edge="1" parent="1" source="jA6ZaiqIhAtj9mefgcWs-34" target="jA6ZaiqIhAtj9mefgcWs-36">
          <mxGeometry relative="1" as="geometry" />
        </mxCell>
        <mxCell id="jA6ZaiqIhAtj9mefgcWs-34" value="Speed Perturb" style="whiteSpace=wrap;html=1;fillColor=#d5e8d4;strokeColor=#82b366;rounded=1;" vertex="1" parent="1">
          <mxGeometry x="460" y="305" width="120" height="60" as="geometry" />
        </mxCell>
        <mxCell id="jA6ZaiqIhAtj9mefgcWs-39" value="" style="edgeStyle=orthogonalEdgeStyle;rounded=0;orthogonalLoop=1;jettySize=auto;html=1;" edge="1" parent="1" source="jA6ZaiqIhAtj9mefgcWs-36" target="jA6ZaiqIhAtj9mefgcWs-38">
          <mxGeometry relative="1" as="geometry" />
        </mxCell>
        <mxCell id="jA6ZaiqIhAtj9mefgcWs-36" value="Random Chunk" style="whiteSpace=wrap;html=1;fillColor=#d5e8d4;strokeColor=#82b366;rounded=1;" vertex="1" parent="1">
          <mxGeometry x="260" y="305" width="120" height="60" as="geometry" />
        </mxCell>
        <mxCell id="jA6ZaiqIhAtj9mefgcWs-40" value="" style="edgeStyle=orthogonalEdgeStyle;rounded=0;orthogonalLoop=1;jettySize=auto;html=1;" edge="1" parent="1" source="jA6ZaiqIhAtj9mefgcWs-38" target="jA6ZaiqIhAtj9mefgcWs-26">
          <mxGeometry relative="1" as="geometry" />
        </mxCell>
        <mxCell id="jA6ZaiqIhAtj9mefgcWs-38" value="Reverb/Noise" style="whiteSpace=wrap;html=1;fillColor=#d5e8d4;strokeColor=#82b366;rounded=1;" vertex="1" parent="1">
          <mxGeometry x="60" y="305" width="120" height="60" as="geometry" />
        </mxCell>
        <mxCell id="jA6ZaiqIhAtj9mefgcWs-41" value="Spec Agu" style="whiteSpace=wrap;html=1;fillColor=#d5e8d4;strokeColor=#82b366;rounded=1;" vertex="1" parent="1">
          <mxGeometry x="260" y="457" width="120" height="60" as="geometry" />
        </mxCell>
      </root>
    </mxGraphModel>
  </diagram>
</mxfile>
